<svg width="390" height="85" viewBox="0 0 390 85" fill="none" xmlns="http://www.w3.org/2000/svg">
<path d="M2 50.9438C54.8126 -2.08417 93.7933 2.84836 145.663 50.9438C193.931 70.1039 220.481 83 266.377 83C312.274 83 326.735 71.902 361 50.9438" stroke="#C4C4C4" stroke-opacity="0.75" stroke-width="4" stroke-dasharray="10 10"/>
<path d="M26.95 22.85H16.2V15H47.55V22.85H36.85V50H26.95V22.85ZM59.3012 26.15C60.2678 24.9167 61.5178 24 63.0512 23.4C64.6178 22.7667 66.4012 22.45 68.4012 22.45V31C67.5345 30.9 66.8178 30.85 66.2512 30.85C64.2178 30.85 62.6178 31.4 61.4512 32.5C60.3178 33.6 59.7512 35.2833 59.7512 37.55V50H50.2512V22.9H59.3012V26.15ZM72.3215 22.9H81.8215V50H72.3215V22.9ZM77.0715 19.9C75.3382 19.9 73.9382 19.4167 72.8715 18.45C71.8048 17.4833 71.2715 16.2833 71.2715 14.85C71.2715 13.4167 71.8048 12.2167 72.8715 11.25C73.9382 10.2833 75.3382 9.8 77.0715 9.8C78.8048 9.8 80.2048 10.2667 81.2715 11.2C82.3382 12.1 82.8715 13.2667 82.8715 14.7C82.8715 16.2 82.3382 17.45 81.2715 18.45C80.2048 19.4167 78.8048 19.9 77.0715 19.9ZM105.045 22.45C107.512 22.45 109.745 23.0333 111.745 24.2C113.779 25.3333 115.379 26.9667 116.545 29.1C117.745 31.2 118.345 33.65 118.345 36.45C118.345 39.25 117.745 41.7167 116.545 43.85C115.379 45.95 113.779 47.5833 111.745 48.75C109.745 49.8833 107.512 50.45 105.045 50.45C101.879 50.45 99.362 49.5 97.4953 47.6V59.7H87.9953V22.9H97.0453V25.6C98.812 23.5 101.479 22.45 105.045 22.45ZM103.045 42.9C104.712 42.9 106.079 42.3333 107.145 41.2C108.212 40.0333 108.745 38.45 108.745 36.45C108.745 34.45 108.212 32.8833 107.145 31.75C106.079 30.5833 104.712 30 103.045 30C101.379 30 100.012 30.5833 98.9453 31.75C97.8786 32.8833 97.3453 34.45 97.3453 36.45C97.3453 38.45 97.8786 40.0333 98.9453 41.2C100.012 42.3333 101.379 42.9 103.045 42.9ZM164.662 31.75C166.662 32.45 168.228 33.55 169.362 35.05C170.495 36.5167 171.062 38.3 171.062 40.4C171.062 43.4667 169.828 45.8333 167.362 47.5C164.895 49.1667 161.328 50 156.662 50H137.762V15H155.662C160.128 15 163.528 15.8333 165.862 17.5C168.195 19.1333 169.362 21.35 169.362 24.15C169.362 25.8167 168.945 27.3167 168.112 28.65C167.312 29.95 166.162 30.9833 164.662 31.75ZM147.562 22.15V28.9H154.362C157.695 28.9 159.362 27.7667 159.362 25.5C159.362 23.2667 157.695 22.15 154.362 22.15H147.562ZM155.862 42.85C159.328 42.85 161.062 41.6667 161.062 39.3C161.062 36.9333 159.328 35.75 155.862 35.75H147.562V42.85H155.862ZM204.239 22.9V50H195.189V47.1C194.189 48.2 192.989 49.0333 191.589 49.6C190.189 50.1667 188.706 50.45 187.139 50.45C183.639 50.45 180.839 49.4167 178.739 47.35C176.673 45.2833 175.639 42.1833 175.639 38.05V22.9H185.139V36.5C185.139 38.5333 185.523 40.0167 186.289 40.95C187.056 41.8833 188.173 42.35 189.639 42.35C191.139 42.35 192.356 41.8333 193.289 40.8C194.256 39.7333 194.739 38.1167 194.739 35.95V22.9H204.239ZM210.359 22.9H219.859V50H210.359V22.9ZM215.109 19.9C213.375 19.9 211.975 19.4167 210.909 18.45C209.842 17.4833 209.309 16.2833 209.309 14.85C209.309 13.4167 209.842 12.2167 210.909 11.25C211.975 10.2833 213.375 9.8 215.109 9.8C216.842 9.8 218.242 10.2667 219.309 11.2C220.375 12.1 220.909 13.2667 220.909 14.7C220.909 16.2 220.375 17.45 219.309 18.45C218.242 19.4167 216.842 19.9 215.109 19.9ZM226.032 12.9H235.532V50H226.032V12.9ZM270.506 12.9V50H261.456V47.3C259.69 49.4 257.04 50.45 253.506 50.45C251.04 50.45 248.79 49.8833 246.756 48.75C244.723 47.5833 243.106 45.9333 241.906 43.8C240.74 41.6667 240.156 39.2 240.156 36.4C240.156 33.6 240.74 31.15 241.906 29.05C243.106 26.9167 244.723 25.2833 246.756 24.15C248.79 23.0167 251.04 22.45 253.506 22.45C256.74 22.45 259.24 23.3833 261.006 25.25V12.9H270.506ZM255.506 42.9C257.14 42.9 258.49 42.3333 259.556 41.2C260.623 40.0333 261.156 38.4333 261.156 36.4C261.156 34.4 260.623 32.8333 259.556 31.7C258.523 30.5667 257.173 30 255.506 30C253.84 30 252.473 30.5667 251.406 31.7C250.34 32.8333 249.806 34.4 249.806 36.4C249.806 38.4333 250.34 40.0333 251.406 41.2C252.473 42.3333 253.84 42.9 255.506 42.9ZM304.318 36.5C304.318 36.5667 304.268 37.35 304.168 38.85H284.468C284.868 40.25 285.635 41.3333 286.768 42.1C287.935 42.8333 289.385 43.2 291.118 43.2C292.418 43.2 293.535 43.0167 294.468 42.65C295.435 42.2833 296.402 41.6833 297.368 40.85L302.368 46.05C299.735 48.9833 295.885 50.45 290.818 50.45C287.652 50.45 284.868 49.85 282.468 48.65C280.068 47.45 278.202 45.7833 276.868 43.65C275.568 41.5167 274.918 39.1 274.918 36.4C274.918 33.7333 275.552 31.35 276.818 29.25C278.118 27.1167 279.902 25.45 282.168 24.25C284.435 23.05 286.985 22.45 289.818 22.45C292.518 22.45 294.968 23.0167 297.168 24.15C299.368 25.25 301.102 26.8667 302.368 29C303.668 31.1 304.318 33.6 304.318 36.5ZM289.868 29.2C288.402 29.2 287.168 29.6167 286.168 30.45C285.202 31.2833 284.585 32.4167 284.318 33.85H295.418C295.152 32.4167 294.518 31.2833 293.518 30.45C292.552 29.6167 291.335 29.2 289.868 29.2ZM317.748 26.15C318.715 24.9167 319.965 24 321.498 23.4C323.065 22.7667 324.848 22.45 326.848 22.45V31C325.982 30.9 325.265 30.85 324.698 30.85C322.665 30.85 321.065 31.4 319.898 32.5C318.765 33.6 318.198 35.2833 318.198 37.55V50H308.698V22.9H317.748V26.15Z" fill="#F4FCFD"/>
<path d="M361.5 4.33331C352.309 4.33331 344.875 11.115 344.875 19.5C344.875 30.875 361.5 47.6666 361.5 47.6666C361.5 47.6666 378.125 30.875 378.125 19.5C378.125 11.115 370.691 4.33331 361.5 4.33331ZM361.5 24.9166C358.223 24.9166 355.563 22.49 355.563 19.5C355.563 16.51 358.223 14.0833 361.5 14.0833C364.778 14.0833 367.438 16.51 367.438 19.5C367.438 22.49 364.778 24.9166 361.5 24.9166Z" fill="#E13F37"/>
</svg>
